<mxfile host="app.diagrams.net" modified="2023-06-28T11:29:24.822Z" agent="Mozilla/5.0 (Windows NT 10.0; Win64; x64; rv:109.0) Gecko/20100101 Firefox/114.0" etag="sifSSnvZ9yMpQQdGxTv7" version="21.5.1" type="device">
  <diagram name="Side-1" id="W7HyfAVylb-O9rRz36eP">
    <mxGraphModel dx="1434" dy="942" grid="1" gridSize="10" guides="1" tooltips="1" connect="1" arrows="1" fold="1" page="1" pageScale="1" pageWidth="827" pageHeight="1169" math="0" shadow="0">
      <root>
        <mxCell id="0" />
        <mxCell id="1" parent="0" />
        <mxCell id="JQEfpF8njQ-Y6-3juK2u-1" value="App" style="rounded=1;whiteSpace=wrap;html=1;" vertex="1" parent="1">
          <mxGeometry x="340" y="160" width="120" height="60" as="geometry" />
        </mxCell>
        <mxCell id="JQEfpF8njQ-Y6-3juK2u-8" style="edgeStyle=orthogonalEdgeStyle;rounded=0;orthogonalLoop=1;jettySize=auto;html=1;" edge="1" parent="1" source="JQEfpF8njQ-Y6-3juK2u-2">
          <mxGeometry relative="1" as="geometry">
            <mxPoint x="420" y="220" as="targetPoint" />
            <Array as="points">
              <mxPoint x="420" y="270" />
            </Array>
          </mxGeometry>
        </mxCell>
        <mxCell id="JQEfpF8njQ-Y6-3juK2u-2" value="Router view" style="rounded=1;whiteSpace=wrap;html=1;" vertex="1" parent="1">
          <mxGeometry x="480" y="240" width="120" height="60" as="geometry" />
        </mxCell>
        <mxCell id="JQEfpF8njQ-Y6-3juK2u-7" style="edgeStyle=orthogonalEdgeStyle;rounded=0;orthogonalLoop=1;jettySize=auto;html=1;entryX=0.5;entryY=1;entryDx=0;entryDy=0;" edge="1" parent="1" source="JQEfpF8njQ-Y6-3juK2u-3">
          <mxGeometry relative="1" as="geometry">
            <mxPoint x="390" y="220" as="targetPoint" />
            <Array as="points">
              <mxPoint x="390" y="270" />
            </Array>
          </mxGeometry>
        </mxCell>
        <mxCell id="JQEfpF8njQ-Y6-3juK2u-3" value="Header" style="rounded=1;whiteSpace=wrap;html=1;" vertex="1" parent="1">
          <mxGeometry x="160" y="240" width="120" height="60" as="geometry" />
        </mxCell>
        <mxCell id="JQEfpF8njQ-Y6-3juK2u-11" style="edgeStyle=orthogonalEdgeStyle;rounded=0;orthogonalLoop=1;jettySize=auto;html=1;" edge="1" parent="1" source="JQEfpF8njQ-Y6-3juK2u-24" target="JQEfpF8njQ-Y6-3juK2u-3">
          <mxGeometry relative="1" as="geometry">
            <mxPoint x="430.02857142857135" y="320" as="sourcePoint" />
          </mxGeometry>
        </mxCell>
        <mxCell id="JQEfpF8njQ-Y6-3juK2u-13" style="edgeStyle=orthogonalEdgeStyle;rounded=0;orthogonalLoop=1;jettySize=auto;html=1;" edge="1" parent="1" source="JQEfpF8njQ-Y6-3juK2u-12" target="JQEfpF8njQ-Y6-3juK2u-2">
          <mxGeometry relative="1" as="geometry" />
        </mxCell>
        <mxCell id="JQEfpF8njQ-Y6-3juK2u-12" value="&lt;div&gt;Home&lt;/div&gt;&lt;div style=&quot;font-size: 8px;&quot;&gt;Kun ansvarlig for at loade routeren&lt;br&gt;&lt;/div&gt;" style="rounded=1;whiteSpace=wrap;html=1;dashed=1;" vertex="1" parent="1">
          <mxGeometry x="630" y="240" width="120" height="60" as="geometry" />
        </mxCell>
        <mxCell id="JQEfpF8njQ-Y6-3juK2u-38" style="edgeStyle=orthogonalEdgeStyle;rounded=0;orthogonalLoop=1;jettySize=auto;html=1;" edge="1" parent="1" source="JQEfpF8njQ-Y6-3juK2u-18" target="JQEfpF8njQ-Y6-3juK2u-2">
          <mxGeometry relative="1" as="geometry">
            <Array as="points">
              <mxPoint x="700" y="330" />
              <mxPoint x="550" y="330" />
            </Array>
          </mxGeometry>
        </mxCell>
        <mxCell id="JQEfpF8njQ-Y6-3juK2u-18" value="&lt;div&gt;About&lt;/div&gt;&lt;div style=&quot;font-size: 8px;&quot;&gt;Beskrivelse af hvad siden gør&lt;br&gt;&lt;/div&gt;" style="rounded=1;whiteSpace=wrap;html=1;" vertex="1" parent="1">
          <mxGeometry x="640" y="360" width="120" height="60" as="geometry" />
        </mxCell>
        <mxCell id="JQEfpF8njQ-Y6-3juK2u-17" style="edgeStyle=orthogonalEdgeStyle;rounded=0;orthogonalLoop=1;jettySize=auto;html=1;" edge="1" parent="1" source="JQEfpF8njQ-Y6-3juK2u-26" target="JQEfpF8njQ-Y6-3juK2u-25">
          <mxGeometry relative="1" as="geometry">
            <mxPoint x="460" y="480" as="sourcePoint" />
            <mxPoint x="460.02857142857147" y="460" as="targetPoint" />
          </mxGeometry>
        </mxCell>
        <mxCell id="JQEfpF8njQ-Y6-3juK2u-22" style="edgeStyle=orthogonalEdgeStyle;rounded=0;orthogonalLoop=1;jettySize=auto;html=1;" edge="1" parent="1" source="JQEfpF8njQ-Y6-3juK2u-20" target="JQEfpF8njQ-Y6-3juK2u-26">
          <mxGeometry relative="1" as="geometry">
            <mxPoint x="460" y="540" as="targetPoint" />
            <Array as="points">
              <mxPoint x="380" y="650" />
              <mxPoint x="460" y="650" />
            </Array>
          </mxGeometry>
        </mxCell>
        <mxCell id="JQEfpF8njQ-Y6-3juK2u-20" value="&lt;div&gt;InputCard&lt;/div&gt;&lt;div style=&quot;font-size: 8px;&quot;&gt;Valg af CRS og Input af koordinater igennem Inputs eller addresse&lt;br&gt;&lt;/div&gt;" style="rounded=1;whiteSpace=wrap;html=1;" vertex="1" parent="1">
          <mxGeometry x="320" y="680" width="120" height="60" as="geometry" />
        </mxCell>
        <mxCell id="JQEfpF8njQ-Y6-3juK2u-23" style="edgeStyle=orthogonalEdgeStyle;rounded=0;orthogonalLoop=1;jettySize=auto;html=1;" edge="1" parent="1" source="JQEfpF8njQ-Y6-3juK2u-21" target="JQEfpF8njQ-Y6-3juK2u-26">
          <mxGeometry relative="1" as="geometry">
            <mxPoint x="460" y="540" as="targetPoint" />
            <Array as="points">
              <mxPoint x="540" y="650" />
              <mxPoint x="460" y="650" />
            </Array>
          </mxGeometry>
        </mxCell>
        <mxCell id="JQEfpF8njQ-Y6-3juK2u-21" value="&lt;div&gt;OutputCard&lt;/div&gt;&lt;div style=&quot;font-size: 8px;&quot;&gt;Valg af CRS og output koordinater&lt;br&gt;&lt;/div&gt;" style="rounded=1;whiteSpace=wrap;html=1;" vertex="1" parent="1">
          <mxGeometry x="480" y="680" width="120" height="60" as="geometry" />
        </mxCell>
        <mxCell id="JQEfpF8njQ-Y6-3juK2u-24" value="&lt;div&gt;Brand&lt;/div&gt;&lt;div style=&quot;font-size: 8px;&quot;&gt;Statisk element m. logo og navn&lt;br&gt;&lt;/div&gt;" style="rounded=1;whiteSpace=wrap;html=1;" vertex="1" parent="1">
          <mxGeometry x="160" y="320" width="120" height="60" as="geometry" />
        </mxCell>
        <mxCell id="JQEfpF8njQ-Y6-3juK2u-39" style="edgeStyle=orthogonalEdgeStyle;rounded=0;orthogonalLoop=1;jettySize=auto;html=1;" edge="1" parent="1" source="JQEfpF8njQ-Y6-3juK2u-25" target="JQEfpF8njQ-Y6-3juK2u-43">
          <mxGeometry relative="1" as="geometry">
            <mxPoint x="380" y="420" as="targetPoint" />
          </mxGeometry>
        </mxCell>
        <mxCell id="JQEfpF8njQ-Y6-3juK2u-40" style="edgeStyle=orthogonalEdgeStyle;rounded=0;orthogonalLoop=1;jettySize=auto;html=1;" edge="1" parent="1" source="JQEfpF8njQ-Y6-3juK2u-25" target="JQEfpF8njQ-Y6-3juK2u-44">
          <mxGeometry relative="1" as="geometry">
            <mxPoint x="540" y="420" as="targetPoint" />
          </mxGeometry>
        </mxCell>
        <mxCell id="JQEfpF8njQ-Y6-3juK2u-25" value="&lt;div&gt;Map&lt;/div&gt;&lt;div style=&quot;font-size: 8px;&quot;&gt;Baggrundskort m. tilhørende funktionalitet&lt;br&gt;&lt;/div&gt;" style="rounded=1;whiteSpace=wrap;html=1;" vertex="1" parent="1">
          <mxGeometry x="400" y="480" width="120" height="60" as="geometry" />
        </mxCell>
        <mxCell id="JQEfpF8njQ-Y6-3juK2u-26" value="&lt;div&gt;Koordinat&lt;/div&gt;&lt;div&gt;transformation&lt;/div&gt;&lt;div style=&quot;font-size: 8px;&quot;&gt;Transformationsfunktionalitet&lt;br&gt;&lt;/div&gt;" style="rounded=1;whiteSpace=wrap;html=1;" vertex="1" parent="1">
          <mxGeometry x="400" y="560" width="120" height="60" as="geometry" />
        </mxCell>
        <mxCell id="JQEfpF8njQ-Y6-3juK2u-29" style="edgeStyle=orthogonalEdgeStyle;rounded=0;orthogonalLoop=1;jettySize=auto;html=1;" edge="1" parent="1" source="JQEfpF8njQ-Y6-3juK2u-27" target="JQEfpF8njQ-Y6-3juK2u-20">
          <mxGeometry relative="1" as="geometry">
            <Array as="points">
              <mxPoint x="460" y="770" />
              <mxPoint x="390" y="770" />
            </Array>
          </mxGeometry>
        </mxCell>
        <mxCell id="JQEfpF8njQ-Y6-3juK2u-42" style="edgeStyle=orthogonalEdgeStyle;rounded=0;orthogonalLoop=1;jettySize=auto;html=1;" edge="1" parent="1" source="JQEfpF8njQ-Y6-3juK2u-27" target="JQEfpF8njQ-Y6-3juK2u-21">
          <mxGeometry relative="1" as="geometry" />
        </mxCell>
        <mxCell id="JQEfpF8njQ-Y6-3juK2u-27" value="&lt;div&gt;CrsSelector&lt;/div&gt;&lt;div style=&quot;font-size: 8px;&quot;&gt;Select element med aktuelle CRS koder&lt;br&gt;&lt;/div&gt;" style="rounded=1;whiteSpace=wrap;html=1;" vertex="1" parent="1">
          <mxGeometry x="400" y="800" width="120" height="60" as="geometry" />
        </mxCell>
        <mxCell id="JQEfpF8njQ-Y6-3juK2u-30" style="edgeStyle=orthogonalEdgeStyle;rounded=0;orthogonalLoop=1;jettySize=auto;html=1;" edge="1" parent="1" source="JQEfpF8njQ-Y6-3juK2u-28" target="JQEfpF8njQ-Y6-3juK2u-20">
          <mxGeometry relative="1" as="geometry">
            <Array as="points">
              <mxPoint x="300" y="770" />
              <mxPoint x="380" y="770" />
            </Array>
          </mxGeometry>
        </mxCell>
        <mxCell id="JQEfpF8njQ-Y6-3juK2u-28" value="&lt;div&gt;CoordinateInputField&lt;/div&gt;&lt;div style=&quot;font-size: 8px;&quot;&gt;1-3 inputfelter afhængig af inputtets format&lt;br&gt;&lt;/div&gt;" style="rounded=1;whiteSpace=wrap;html=1;" vertex="1" parent="1">
          <mxGeometry x="240" y="800" width="120" height="60" as="geometry" />
        </mxCell>
        <mxCell id="JQEfpF8njQ-Y6-3juK2u-32" style="edgeStyle=orthogonalEdgeStyle;rounded=0;orthogonalLoop=1;jettySize=auto;html=1;" edge="1" parent="1" source="JQEfpF8njQ-Y6-3juK2u-31" target="JQEfpF8njQ-Y6-3juK2u-26">
          <mxGeometry relative="1" as="geometry" />
        </mxCell>
        <mxCell id="JQEfpF8njQ-Y6-3juK2u-31" value="MenuCloser&lt;div style=&quot;font-size: 8px;&quot;&gt;Komponent til at åbne og lukke transformeren&lt;br&gt;&lt;/div&gt;" style="rounded=1;whiteSpace=wrap;html=1;" vertex="1" parent="1">
          <mxGeometry x="560" y="560" width="120" height="60" as="geometry" />
        </mxCell>
        <mxCell id="JQEfpF8njQ-Y6-3juK2u-37" style="edgeStyle=orthogonalEdgeStyle;rounded=0;orthogonalLoop=1;jettySize=auto;html=1;" edge="1" parent="1" source="JQEfpF8njQ-Y6-3juK2u-43" target="JQEfpF8njQ-Y6-3juK2u-2">
          <mxGeometry relative="1" as="geometry">
            <mxPoint x="380" y="360" as="sourcePoint" />
            <Array as="points">
              <mxPoint x="380" y="330" />
              <mxPoint x="530" y="330" />
            </Array>
          </mxGeometry>
        </mxCell>
        <mxCell id="JQEfpF8njQ-Y6-3juK2u-36" style="edgeStyle=orthogonalEdgeStyle;rounded=0;orthogonalLoop=1;jettySize=auto;html=1;" edge="1" parent="1" source="JQEfpF8njQ-Y6-3juK2u-44" target="JQEfpF8njQ-Y6-3juK2u-2">
          <mxGeometry relative="1" as="geometry">
            <mxPoint x="540" y="360" as="sourcePoint" />
          </mxGeometry>
        </mxCell>
        <mxCell id="JQEfpF8njQ-Y6-3juK2u-43" value="&lt;div&gt;Denmark&lt;/div&gt;&lt;div style=&quot;font-size: 8px;&quot;&gt;sætter baggrundskort og CRS koder til Danmarks værdier&lt;br&gt;&lt;/div&gt;" style="rounded=1;whiteSpace=wrap;html=1;" vertex="1" parent="1">
          <mxGeometry x="320" y="360" width="120" height="60" as="geometry" />
        </mxCell>
        <mxCell id="JQEfpF8njQ-Y6-3juK2u-44" value="&lt;div&gt;Greenland&lt;/div&gt;&lt;div style=&quot;font-size: 8px;&quot;&gt;sætter baggrundskort og CRS koder til Grønlands værdier&lt;br&gt;&lt;/div&gt;" style="rounded=1;whiteSpace=wrap;html=1;" vertex="1" parent="1">
          <mxGeometry x="480" y="360" width="120" height="60" as="geometry" />
        </mxCell>
      </root>
    </mxGraphModel>
  </diagram>
</mxfile>
